<svg width="106" height="89" viewBox="0 0 106 89" fill="none" xmlns="http://www.w3.org/2000/svg">
<g clip-path="url(#clip0_105_2396)">
<path d="M53.1247 0.5C24.7035 0.5 2.43683 36.58 0.330078 67.0536C9.24898 82.4982 30.7566 88.3038 53.1255 88.3038C75.4928 88.3038 97.0016 82.4982 105.916 67.0532C103.809 36.58 81.5451 0.5 53.1251 0.5" fill="#B6DEFF"/>
<path d="M98.4892 59.7947C98.4892 59.7947 92.212 46.2535 85.8317 38.3533C79.4469 30.4498 71.6497 21.844 67.0395 21.844C62.4318 21.844 49.5512 44.5992 43.6421 44.5992C37.7318 44.5992 34.6602 34.2838 27.3939 34.2838C20.1246 34.2838 8.57555 59.1589 8.57555 59.1589L7.79297 63.3759C7.79297 63.3759 11.8052 81.125 53.7804 81.125C95.7572 81.125 99.112 63.6671 99.112 63.6671L98.4896 59.7943" fill="#66CC66"/>
<path d="M44.2989 54.3101C37.7799 54.3101 34.4381 47.8923 32.6261 43.9307C30.9968 40.3619 30.7148 34.7275 26.0918 34.5696C26.546 34.3899 26.9833 34.2837 27.3932 34.2837C34.6596 34.2837 37.7311 44.5992 43.6414 44.5992C49.5505 44.5992 62.4312 21.8435 67.0388 21.8435C67.9071 21.8435 68.8851 22.1492 69.9464 22.6929C69.1613 22.5896 68.1547 22.6615 67.3792 23.4378C65.8898 24.9243 52.3694 54.3101 44.2989 54.3101Z" fill="#17AD49"/>
</g>
<defs>
<clipPath id="clip0_105_2396">
<rect width="106" height="88" fill="white" transform="translate(0 0.5)"/>
</clipPath>
</defs>
</svg>
